<?xml version="1.0" encoding="utf-8"?>
<!-- Generator: Adobe Illustrator 27.5.0, SVG Export Plug-In . SVG Version: 6.00 Build 0)  -->
<svg version="1.1" xmlns="http://www.w3.org/2000/svg" xmlns:xlink="http://www.w3.org/1999/xlink" x="0px" y="0px"
	 viewBox="0 0 500 500" style="enable-background:new 0 0 500 500;" xml:space="preserve">
<g id="Background_Complete">
	<g>
		<rect x="415.8" y="399.207" style="fill:#EBEBEB;" width="33.122" height="0.25"/>
		<rect x="321.548" y="401.921" style="fill:#EBEBEB;" width="8.693" height="0.25"/>
		<rect x="395.607" y="389.921" style="fill:#EBEBEB;" width="19.192" height="0.25"/>
		<rect x="51.48" y="391.601" style="fill:#EBEBEB;" width="43.193" height="0.25"/>
		<rect x="103.577" y="391.601" style="fill:#EBEBEB;" width="6.333" height="0.25"/>
		<rect x="130.492" y="395.824" style="fill:#EBEBEB;" width="93.676" height="0.25"/>
		<path style="fill:#EBEBEB;" d="M236.035,338.513H42.936c-3.147,0-5.708-2.56-5.708-5.708V61.373c0-3.147,2.561-5.708,5.708-5.708
			h193.099c3.146,0,5.707,2.561,5.707,5.708v271.432C241.742,335.952,239.181,338.513,236.035,338.513z M42.936,55.916
			c-3.01,0-5.458,2.448-5.458,5.458v271.432c0,3.01,2.448,5.458,5.458,5.458h193.099c3.009,0,5.457-2.448,5.457-5.458V61.373
			c0-3.009-2.448-5.458-5.457-5.458H42.936z"/>
		<path style="fill:#EBEBEB;" d="M452.331,338.513H259.233c-3.146,0-5.707-2.56-5.707-5.708V61.373c0-3.147,2.561-5.708,5.707-5.708
			h193.099c3.148,0,5.708,2.561,5.708,5.708v271.432C458.039,335.952,455.479,338.513,452.331,338.513z M259.233,55.916
			c-3.009,0-5.457,2.448-5.457,5.458v271.432c0,3.01,2.448,5.458,5.457,5.458h193.099c3.01,0,5.458-2.448,5.458-5.458V61.373
			c0-3.009-2.448-5.458-5.458-5.458H259.233z"/>
		<rect x="-0.979" y="383.111" style="fill:#EBEBEB;" width="500" height="0.25"/>
	</g>
	<g>
		<g>
			
				<rect x="72.48" y="264.316" transform="matrix(-1 -1.224647e-16 1.224647e-16 -1 229.7935 641.5136)" style="fill:#F0F0F0;" width="84.834" height="112.882"/>
			
				<rect x="56.297" y="264.316" transform="matrix(-1 -1.224647e-16 1.224647e-16 -1 128.7763 641.5136)" style="fill:#E6E6E6;" width="16.183" height="112.882"/>
			
				<rect x="77.985" y="272.692" transform="matrix(-1 -1.224647e-16 1.224647e-16 -1 229.3572 572.7962)" style="fill:#FAFAFA;" width="73.386" height="27.413"/>
			<path style="fill:#EBEBEB;" d="M124.248,272.692l-0.321,3.654c-0.106,1.205-1.115,2.13-2.325,2.13h-13.847
				c-1.21,0-2.219-0.925-2.325-2.13l-0.321-3.654H124.248z"/>
			
				<rect x="77.985" y="303.099" transform="matrix(-1 -1.224647e-16 1.224647e-16 -1 229.3572 633.611)" style="fill:#FAFAFA;" width="73.386" height="27.413"/>
			<path style="fill:#EBEBEB;" d="M124.248,303.099l-0.321,3.654c-0.106,1.206-1.115,2.13-2.325,2.13h-13.847
				c-1.21,0-2.219-0.925-2.325-2.13l-0.321-3.654H124.248z"/>
			
				<rect x="77.985" y="333.506" transform="matrix(-1 -1.224647e-16 1.224647e-16 -1 229.3572 694.4256)" style="fill:#FAFAFA;" width="73.386" height="27.413"/>
			<path style="fill:#EBEBEB;" d="M124.248,333.506l-0.321,3.654c-0.106,1.205-1.115,2.13-2.325,2.13h-13.847
				c-1.21,0-2.219-0.925-2.325-2.13l-0.321-3.654H124.248z"/>
			<polygon style="fill:#E6E6E6;" points="77.985,382.833 150.48,382.833 151.372,377.188 77.985,377.188 			"/>
			<polygon style="fill:#E0E0E0;" points="62.833,382.833 77.985,382.833 77.985,377.188 61.942,377.188 			"/>
		</g>
		<g>
			<polygon style="fill:#FAFAFA;" points="112.062,264.437 141.031,264.437 137.816,227.7 108.848,227.7 			"/>
			<polygon style="fill:#EBEBEB;" points="112.062,264.437 110.679,264.437 107.465,227.7 108.848,227.7 			"/>
			<polygon style="fill:#F0F0F0;" points="114.688,260.692 137.749,260.692 135.191,231.446 112.129,231.446 			"/>
			<polygon style="fill:#E6E6E6;" points="116.376,258.284 135.64,258.284 133.503,233.853 114.239,233.853 			"/>
		</g>
		<g>
			<polygon style="fill:#F0F0F0;" points="103.923,264.437 105.912,241.698 77.075,241.698 75.086,264.437 			"/>
			<polygon style="fill:#E0E0E0;" points="103.923,264.437 105.912,241.698 107.465,241.698 105.476,264.437 			"/>
			<polygon style="fill:#EBEBEB;" points="101.186,262.119 102.769,244.017 79.812,244.017 78.229,262.119 			"/>
			<polygon style="fill:#F5F5F5;" points="99.426,260.629 100.749,245.507 81.572,245.507 80.249,260.629 			"/>
		</g>
	</g>
	<g>
		<g>
			<path style="fill:#F0F0F0;" d="M236.707,382.984h-4.446c-0.655,0-1.186-0.531-1.186-1.186v-99.089h6.818v99.089
				C237.893,382.453,237.362,382.984,236.707,382.984z"/>
		</g>
		<g>
			<path style="fill:#F0F0F0;" d="M429.334,273.793h-15.675V272.4c0-2.734,2.295-4.908,5.025-4.761l6.14,0.332
				c2.53,0.137,4.511,2.228,4.511,4.761V273.793z"/>
			<g>
				<path style="fill:#E0E0E0;" d="M387.017,241.392c-0.059-1.234-1.078-2.205-2.314-2.205h-15.84c-1.236,0-2.254,0.971-2.313,2.205
					l3.76,33.01h23.643L387.017,241.392z"/>
				<path style="fill:#E0E0E0;" d="M430.037,190.639h-5.902l-6.634,62.345h5.902c0.978,0,1.855-0.793,1.959-1.771l6.257-58.803
					C431.723,191.432,431.015,190.639,430.037,190.639z"/>
				<path style="fill:#EBEBEB;" d="M420.908,252.985H332.45c-0.978,0-1.687-0.793-1.582-1.771l6.257-58.803
					c0.104-0.978,0.981-1.771,1.959-1.771h88.458c0.978,0,1.687,0.793,1.583,1.771l-6.257,58.803
					C422.763,252.192,421.885,252.985,420.908,252.985z"/>
				<path style="fill:#E0E0E0;" d="M419.255,247.227h-83.416c-0.853,0-1.471-0.692-1.381-1.545l5.459-51.304
					c0.091-0.853,0.856-1.545,1.71-1.545h83.416c0.853,0,1.471,0.692,1.381,1.545l-5.459,51.304
					C420.874,246.535,420.108,247.227,419.255,247.227z"/>
				<path style="fill:#E0E0E0;" d="M395.162,271.839h-29.725c-0.529,0-0.959,0.429-0.959,0.959v0.646
					c0,0.53,0.429,0.959,0.959,0.959h29.724c0.53,0,0.959-0.429,0.959-0.959v-0.646
					C396.121,272.268,395.691,271.839,395.162,271.839z"/>
				<g>
					<path style="fill:#EBEBEB;" d="M335.533,247.227l24.79-21.546c2.353-2.045,5.365-2.045,6.728,0l14.365,21.546H335.533z"/>
					<path style="fill:#F5F5F5;" d="M360.323,225.68l-24.79,21.546h23.768c-2.371-1.201-7.952-1.838-7.288-4.582
						c0.864-3.571,11.917-2.321,12.737-5.713c0.821-3.392-7.063-2.321-6.069-6.427c0.522-2.158,2.561-4.495,4.387-6.244
						C362.14,224.46,361.187,224.929,360.323,225.68z"/>
				</g>
				<g>
					<path style="fill:#EBEBEB;" d="M372.007,247.227l10.988-10.87c1.043-1.032,2.378-1.032,2.982,0l6.367,10.87H372.007z"/>
					<path style="fill:#FAFAFA;" d="M382.995,236.357l-10.988,10.87h10.535c-1.051-0.606-3.525-0.927-3.231-2.312
						c0.383-1.801,5.282-1.171,5.646-2.882c0.364-1.711-3.131-1.171-2.69-3.242c0.231-1.089,1.135-2.268,1.945-3.15
						C383.801,235.741,383.378,235.978,382.995,236.357z"/>
				</g>
				<g>
					<path style="fill:#EBEBEB;" d="M390.81,247.227l15.395-10.87c1.461-1.032,3.332-1.032,4.178,0l8.921,10.87H390.81z"/>
					<path style="fill:#FAFAFA;" d="M406.205,236.357l-15.395,10.87h14.76c-1.473-0.606-4.938-0.927-4.526-2.312
						c0.536-1.801,7.4-1.171,7.91-2.882s-4.386-1.171-3.769-3.242c0.324-1.089,1.591-2.268,2.725-3.15
						C407.333,235.741,406.741,235.978,406.205,236.357z"/>
				</g>
				<g>
					<path style="fill:#F0F0F0;" d="M410.105,214.673c-1.163,5.471-6.541,9.907-12.012,9.907c-5.471,0-8.964-4.435-7.801-9.907
						c1.163-5.471,6.541-9.907,12.012-9.907C407.775,204.766,411.268,209.202,410.105,214.673z"/>
					<path style="opacity:0.8;fill:#FFFFFF;" d="M410.105,214.673c-1.163,5.471-6.541,9.907-12.012,9.907
						c-5.471,0-8.964-4.435-7.801-9.907c1.163-5.471,6.541-9.907,12.012-9.907C407.775,204.766,411.268,209.202,410.105,214.673z"/>
				</g>
			</g>
			<rect x="383.039" y="273.793" style="fill:#E6E6E6;" width="59.097" height="8.915"/>
			<g>
				<path style="fill:#E6E6E6;" d="M278.947,382.984h-4.446c-0.655,0-1.186-0.531-1.186-1.186v-99.089h6.818v99.089
					C280.133,382.453,279.602,382.984,278.947,382.984z"/>
			</g>
			<path style="fill:#E6E6E6;" d="M437.008,382.984h-4.446c-0.655,0-1.186-0.531-1.186-1.186v-99.089h6.818v99.089
				C438.194,382.453,437.663,382.984,437.008,382.984z"/>
			<rect x="227.134" y="273.793" style="fill:#F5F5F5;" width="172.761" height="8.915"/>
			<path style="fill:#F0F0F0;" d="M394.768,382.984h-4.446c-0.655,0-1.186-0.531-1.186-1.186v-99.089h6.818v99.089
				C395.954,382.453,395.423,382.984,394.768,382.984z"/>
			<g>
				<g>
					<path style="fill:#F5F5F5;" d="M341.164,271.708h-2.206c-0.233,0-0.421-0.189-0.421-0.421v-2.333
						c0-0.233,0.189-0.421,0.421-0.421h1.584c0.191,0,0.358,0.128,0.407,0.313l0.622,2.333
						C341.642,271.445,341.44,271.708,341.164,271.708z"/>
					<path style="fill:#F5F5F5;" d="M344.212,271.708h-2.206c-0.233,0-0.421-0.189-0.421-0.421v-2.333
						c0-0.233,0.189-0.421,0.421-0.421h1.584c0.191,0,0.358,0.128,0.407,0.313l0.622,2.333
						C344.691,271.445,344.489,271.708,344.212,271.708z"/>
					<path style="fill:#F5F5F5;" d="M347.261,271.708h-2.206c-0.233,0-0.421-0.189-0.421-0.421v-2.333
						c0-0.233,0.189-0.421,0.421-0.421h1.584c0.191,0,0.358,0.128,0.407,0.313l0.622,2.333
						C347.739,271.445,347.538,271.708,347.261,271.708z"/>
					<path style="fill:#F5F5F5;" d="M350.309,271.708h-2.206c-0.233,0-0.421-0.189-0.421-0.421v-2.333
						c0-0.233,0.189-0.421,0.421-0.421h1.584c0.191,0,0.358,0.128,0.407,0.313l0.622,2.333
						C350.788,271.445,350.586,271.708,350.309,271.708z"/>
					<path style="fill:#F5F5F5;" d="M353.358,271.708h-2.206c-0.233,0-0.421-0.189-0.421-0.421v-2.333
						c0-0.233,0.189-0.421,0.421-0.421h1.584c0.191,0,0.358,0.128,0.407,0.313l0.622,2.333
						C353.836,271.445,353.635,271.708,353.358,271.708z"/>
					<path style="fill:#F5F5F5;" d="M356.406,271.708h-2.206c-0.233,0-0.421-0.189-0.421-0.421v-2.333
						c0-0.233,0.189-0.421,0.421-0.421h1.584c0.191,0,0.358,0.128,0.407,0.313l0.622,2.333
						C356.885,271.445,356.683,271.708,356.406,271.708z"/>
					<path style="fill:#F5F5F5;" d="M359.455,271.708h-2.206c-0.233,0-0.421-0.189-0.421-0.421v-2.333
						c0-0.233,0.189-0.421,0.421-0.421h1.584c0.191,0,0.358,0.128,0.407,0.313l0.622,2.333
						C359.933,271.445,359.732,271.708,359.455,271.708z"/>
					<path style="fill:#F5F5F5;" d="M362.504,271.708h-2.206c-0.233,0-0.421-0.189-0.421-0.421v-2.333
						c0-0.233,0.189-0.421,0.421-0.421h1.584c0.191,0,0.358,0.128,0.407,0.313l0.622,2.333
						C362.982,271.445,362.78,271.708,362.504,271.708z"/>
					<path style="fill:#F5F5F5;" d="M365.552,271.708h-2.206c-0.233,0-0.421-0.189-0.421-0.421v-2.333
						c0-0.233,0.189-0.421,0.421-0.421h1.584c0.191,0,0.358,0.128,0.407,0.313l0.622,2.333
						C366.03,271.445,365.829,271.708,365.552,271.708z"/>
					<path style="fill:#F5F5F5;" d="M368.601,271.708h-2.206c-0.233,0-0.421-0.189-0.421-0.421v-2.333
						c0-0.233,0.189-0.421,0.421-0.421h1.584c0.191,0,0.358,0.128,0.407,0.313l0.622,2.333
						C369.079,271.445,368.878,271.708,368.601,271.708z"/>
					<path style="fill:#F5F5F5;" d="M371.649,271.708h-2.206c-0.233,0-0.421-0.189-0.421-0.421v-2.333
						c0-0.233,0.189-0.421,0.421-0.421h1.584c0.191,0,0.358,0.128,0.407,0.313l0.622,2.333
						C372.128,271.445,371.926,271.708,371.649,271.708z"/>
					<path style="fill:#F5F5F5;" d="M374.698,271.708h-2.206c-0.232,0-0.421-0.189-0.421-0.421v-2.333
						c0-0.233,0.189-0.421,0.421-0.421h1.584c0.191,0,0.358,0.128,0.407,0.313l0.622,2.333
						C375.176,271.445,374.974,271.708,374.698,271.708z"/>
					<path style="fill:#F5F5F5;" d="M377.746,271.708h-2.206c-0.233,0-0.421-0.189-0.421-0.421v-2.333
						c0-0.233,0.189-0.421,0.421-0.421h1.584c0.191,0,0.358,0.128,0.407,0.313l0.622,2.333
						C378.225,271.445,378.023,271.708,377.746,271.708z"/>
					<path style="fill:#F5F5F5;" d="M380.795,271.708h-2.206c-0.233,0-0.421-0.189-0.421-0.421v-2.333
						c0-0.233,0.189-0.421,0.421-0.421h1.584c0.191,0,0.358,0.128,0.407,0.313l0.622,2.333
						C381.273,271.445,381.072,271.708,380.795,271.708z"/>
					<path style="fill:#F5F5F5;" d="M383.844,271.708h-2.206c-0.233,0-0.421-0.189-0.421-0.421v-2.333
						c0-0.233,0.189-0.421,0.421-0.421h1.584c0.191,0,0.358,0.128,0.407,0.313l0.622,2.333
						C384.322,271.445,384.12,271.708,383.844,271.708z"/>
				</g>
				<rect x="336.739" y="270.12" style="fill:#EBEBEB;" width="49.324" height="3.673"/>
			</g>
		</g>
	</g>
</g>
<g id="Background_Simple" style="display:none;">
	<g style="display:inline;">
		<path style="fill:#407BFF;" d="M308.472,78.028c32.035-1.215,124.364,25.028,124.364,108.604
			c0,87.097-54.61,109.111-128.727,109.111c-69.215,0-51.709,86.105-145.331,86.105c-79.269,0-142.363-153.741-12.746-205.818
			C226.728,143.609,212.913,81.651,308.472,78.028z"/>
		<path style="opacity:0.9;fill:#FFFFFF;" d="M308.472,78.028c32.035-1.215,124.364,25.028,124.364,108.604
			c0,87.097-54.61,109.111-128.727,109.111c-69.215,0-51.709,86.105-145.331,86.105c-79.269,0-142.363-153.741-12.746-205.818
			C226.728,143.609,212.913,81.651,308.472,78.028z"/>
	</g>
</g>
<g id="Shadow">
	<ellipse id="_x3C_Path_x3E__1_" style="fill:#F5F5F5;" cx="245.178" cy="412.391" rx="193.889" ry="11.323"/>
</g>
<g id="Interface">
	<g>
		<g>
			<g>
				<g>
					<g>
						<g>
							<polygon style="fill:#407BFF;" points="72.812,286.025 351.389,286.025 336.842,77.988 58.265,77.988 							"/>
						</g>
					</g>
					<g style="opacity:0.6;">
						<g>
							<polygon style="fill:#FFFFFF;" points="72.812,286.025 351.389,286.025 336.842,77.988 58.265,77.988 							"/>
						</g>
					</g>
					<g>
						<g>
							<g>
								<g>
									<path style="fill:#263238;" d="M291.14,104.01c0.133,0,0.267-0.036,0.387-0.112l4.468-2.829
										c0.208-0.132,0.335-0.36,0.337-0.606c0.002-0.247-0.122-0.477-0.328-0.612l-4.69-3.068
										c-0.335-0.219-0.783-0.124-1.002,0.209c-0.219,0.335-0.125,0.784,0.21,1.003l3.749,2.452l-3.517,2.227
										c-0.338,0.214-0.438,0.661-0.224,0.999C290.666,103.891,290.9,104.01,291.14,104.01z"/>
								</g>
								<g>
									<path style="fill:#263238;" d="M288.715,101.181h6.892c0.4,0,0.724-0.324,0.724-0.724s-0.324-0.724-0.724-0.724h-6.892
										c-0.4,0-0.724,0.324-0.724,0.724S288.315,101.181,288.715,101.181z"/>
								</g>
								<g>
									<g>
										<path style="fill:#263238;" d="M277.801,104.01c0.236,0,0.468-0.115,0.607-0.327c0.219-0.335,0.125-0.783-0.21-1.003
											l-3.749-2.452l3.517-2.227c0.338-0.214,0.438-0.661,0.224-0.999c-0.214-0.338-0.661-0.44-0.999-0.224l-4.468,2.829
											c-0.208,0.132-0.335,0.36-0.337,0.606c-0.002,0.247,0.122,0.477,0.328,0.612l4.69,3.068
											C277.528,103.972,277.665,104.01,277.801,104.01z"/>
									</g>
									<g>
										<path style="fill:#263238;" d="M273.111,100.942h6.892c0.4,0,0.724-0.324,0.724-0.724s-0.324-0.724-0.724-0.724h-6.892
											c-0.4,0-0.724,0.324-0.724,0.724S272.712,100.942,273.111,100.942z"/>
									</g>
								</g>
							</g>
							<g>
								<g>
									<path style="fill:#263238;" d="M260.62,105.485c1.228,0,2.352-0.48,3.164-1.352c0.816-0.875,1.217-2.034,1.131-3.264
										c-0.174-2.49-2.342-4.516-4.832-4.516c-1.227,0-2.351,0.48-3.164,1.352c-0.815,0.875-1.217,2.034-1.131,3.265
										c0.028,0.399,0.37,0.687,0.773,0.672c0.399-0.028,0.7-0.374,0.672-0.773c-0.058-0.826,0.207-1.599,0.746-2.176
										c0.536-0.575,1.284-0.892,2.105-0.892c1.746,0,3.266,1.421,3.388,3.168c0.058,0.826-0.207,1.598-0.745,2.175
										c-0.536,0.575-1.284,0.892-2.106,0.892c-0.4,0-0.724,0.324-0.724,0.724C259.896,105.161,260.22,105.485,260.62,105.485z"/>
								</g>
								<g>
									<path style="fill:#263238;" d="M256.515,101.724c0.068,0,0.136-0.009,0.204-0.029l2.33-0.683
										c0.384-0.113,0.603-0.515,0.491-0.899c-0.112-0.385-0.516-0.603-0.898-0.491l-1.8,0.527l-0.844-1.372
										c-0.21-0.342-0.655-0.448-0.996-0.238c-0.341,0.209-0.447,0.655-0.238,0.996l1.133,1.844
										C256.033,101.597,256.268,101.724,256.515,101.724z"/>
								</g>
							</g>
							<g>
								<g>
									<path style="fill:#263238;" d="M137.755,102.588c-0.74-0.689-1.185-1.65-1.219-2.634c-0.032-0.923,0.288-1.792,0.899-2.446
										c0.611-0.66,1.454-1.041,2.376-1.073c0.996-0.032,1.972,0.344,2.709,1.035c0.741,0.69,1.186,1.651,1.221,2.636
										c0.032,0.923-0.288,1.792-0.899,2.446c-0.611,0.659-1.454,1.04-2.375,1.073c-0.042,0.001-0.083,0.002-0.124,0.002
										C139.399,103.627,138.463,103.252,137.755,102.588z M139.861,97.882c-0.533,0.019-1.017,0.235-1.366,0.612
										c-0.349,0.373-0.53,0.874-0.512,1.409c0.021,0.604,0.298,1.196,0.76,1.626c0.001,0.001,0.001,0.001,0.002,0.002
										c0.46,0.431,1.065,0.667,1.669,0.645c0.533-0.019,1.017-0.235,1.366-0.612c0.349-0.373,0.53-0.874,0.512-1.409
										c-0.021-0.604-0.298-1.196-0.762-1.628c-0.441-0.414-1.018-0.647-1.594-0.647
										C139.911,97.881,139.886,97.881,139.861,97.882z"/>
								</g>
								<g>
									<path style="fill:#263238;" d="M135.736,105.485c0.194,0,0.387-0.078,0.53-0.23l2.514-2.702
										c0.273-0.293,0.256-0.751-0.037-1.024c-0.292-0.271-0.751-0.255-1.023,0.037l-2.514,2.702
										c-0.273,0.293-0.256,0.751,0.037,1.024C135.382,105.421,135.559,105.485,135.736,105.485z"/>
								</g>
							</g>
						</g>
						<polygon style="fill:#407BFF;" points="59.083,89.689 337.66,89.689 336.842,77.988 58.265,77.988 						"/>
						<polygon style="opacity:0.4;" points="59.083,89.689 337.66,89.689 336.842,77.988 58.265,77.988 						"/>
						<g>
							<path style="fill:#FFFFFF;" d="M86.065,83.838c0.135,1.933,1.812,3.5,3.745,3.5s3.39-1.567,3.255-3.5
								c-0.135-1.933-1.812-3.5-3.745-3.5C87.387,80.338,85.929,81.905,86.065,83.838z"/>
							<path style="fill:#FFFFFF;" d="M75.333,83.838c0.135,1.933,1.812,3.5,3.745,3.5c1.933,0,3.39-1.567,3.255-3.5
								c-0.135-1.933-1.812-3.5-3.745-3.5S75.198,81.905,75.333,83.838z"/>
							<path style="fill:#FFFFFF;" d="M64.602,83.838c0.135,1.933,1.812,3.5,3.745,3.5c1.933,0,3.391-1.567,3.255-3.5
								c-0.135-1.933-1.812-3.5-3.745-3.5C65.924,80.338,64.466,81.905,64.602,83.838z"/>
						</g>
					</g>
					<g>
						
							<line style="fill:none;stroke:#263238;stroke-width:1.5;stroke-linecap:round;stroke-linejoin:round;stroke-miterlimit:10;" x1="316.3" y1="96.339" x2="325.157" y2="96.476"/>
						
							<line style="fill:none;stroke:#263238;stroke-width:1.5;stroke-linecap:round;stroke-linejoin:round;stroke-miterlimit:10;" x1="316.649" y1="100.319" x2="325.505" y2="100.457"/>
						
							<line style="fill:none;stroke:#263238;stroke-width:1.5;stroke-linecap:round;stroke-linejoin:round;stroke-miterlimit:10;" x1="316.997" y1="104.3" x2="325.854" y2="104.437"/>
					</g>
				</g>
				<path style="fill:#FFFFFF;" d="M156.241,104.762h84.899c2.436,0,4.272-1.974,4.102-4.41l0,0c-0.17-2.436-2.283-4.41-4.719-4.41
					h-84.899c-2.436,0-4.272,1.975-4.102,4.41l0,0C151.693,102.787,153.805,104.762,156.241,104.762z"/>
				<g style="opacity:0.5;">
					<g>
						<g>
							<polygon points="202.549,117.773 206.634,117.773 206.235,112.076 202.151,112.076 							"/>
							<g>
								<polygon points="200.56,117.733 204.87,121.762 208.617,117.733 								"/>
							</g>
						</g>
						<g>
							<polygon points="196.434,124.598 213.703,124.598 213.223,117.729 211.051,117.729 211.379,122.425 198.454,122.425 
								198.123,117.685 195.951,117.685 							"/>
						</g>
					</g>
					<g style="opacity:0.5;">
						<g>
							<polygon points="202.549,117.773 206.634,117.773 206.235,112.076 202.151,112.076 							"/>
							<g>
								<polygon points="200.56,117.733 204.87,121.762 208.617,117.733 								"/>
							</g>
						</g>
						<g>
							<polygon points="196.434,124.598 213.703,124.598 213.223,117.729 211.051,117.729 211.379,122.425 198.454,122.425 
								198.123,117.685 195.951,117.685 							"/>
						</g>
					</g>
				</g>
			</g>
		</g>
		<g>
			<polygon style="opacity:0.1;fill:#FFFFFF;enable-background:new    ;" points="293.771,77.988 350.675,286.326 337.284,286.326 
				280.819,77.988 			"/>
			<polygon style="opacity:0.1;fill:#FFFFFF;enable-background:new    ;" points="107.039,77.988 163.943,286.326 150.551,286.326 
				94.087,77.988 			"/>
			<polygon style="opacity:0.1;fill:#FFFFFF;enable-background:new    ;" points="273.104,77.988 330.008,286.326 298.608,286.326 
				242.143,77.988 			"/>
		</g>
		<g>
			<path style="fill:#407BFF;" d="M165.78,161.328h83.52c5.125,0,8.989-4.155,8.631-9.28l-0.619-8.856
				c-0.358-5.125-4.804-9.28-9.929-9.28h-83.52c-5.125,0-8.989,4.155-8.631,9.28l0.619,8.856
				C156.21,157.173,160.655,161.328,165.78,161.328z"/>
		</g>
		<g>
			<path style="fill:#FFFFFF;" d="M183.734,147.482c-0.192-1.83,1.068-3.152,2.948-3.152c0.997,0,1.891,0.359,2.529,1.024
				l-0.662,0.692c-0.497-0.481-1.073-0.718-1.711-0.718c-1.268,0-2.091,0.894-1.959,2.154c0.132,1.261,1.144,2.154,2.412,2.154
				c0.638,0,1.164-0.236,1.559-0.727l0.808,0.701c-0.499,0.666-1.318,1.024-2.323,1.024
				C185.464,150.634,183.926,149.313,183.734,147.482z"/>
			<path style="fill:#FFFFFF;" d="M190.066,144.05h1.093l0.683,6.497h-1.093L190.066,144.05z"/>
			<path style="fill:#FFFFFF;" d="M192.486,144.443c-0.039-0.367,0.229-0.656,0.63-0.656c0.402,0,0.728,0.271,0.766,0.63
				c0.041,0.385-0.217,0.683-0.628,0.683C192.853,145.101,192.525,144.811,192.486,144.443z M192.785,145.871h1.093l0.491,4.676
				h-1.093L192.785,145.871z"/>
			<path style="fill:#FFFFFF;" d="M195.174,148.209c-0.147-1.401,0.798-2.391,2.276-2.391c0.91,0,1.675,0.376,2.107,1.086
				l-0.788,0.49c-0.327-0.447-0.768-0.648-1.231-0.648c-0.805,0-1.357,0.56-1.263,1.462c0.096,0.911,0.766,1.462,1.57,1.462
				c0.463,0,0.862-0.202,1.095-0.648l0.891,0.49c-0.285,0.701-0.969,1.095-1.879,1.095
				C196.475,150.608,195.322,149.61,195.174,148.209z"/>
			<path style="fill:#FFFFFF;" d="M202.539,148.542l-0.732,0.771l0.129,1.234h-1.093l-0.683-6.497h1.093l0.412,3.923l2.044-2.102
				h1.311l-1.744,1.961l2.419,2.715h-1.329L202.539,148.542z"/>
			<path style="fill:#FFFFFF;" d="M213.721,144.417l0.644,6.129h-1.137l-0.276-2.627h-3.165l0.276,2.627h-1.137l-0.644-6.129h1.137
				l0.266,2.53h3.165l-0.266-2.53H213.721z"/>
			<path style="fill:#FFFFFF;" d="M220.071,148.559h-3.663c0.203,0.683,0.817,1.121,1.63,1.121c0.525,0,0.918-0.167,1.214-0.508
				l0.657,0.675c-0.368,0.499-0.996,0.761-1.8,0.761c-1.565,0-2.685-1.007-2.832-2.399c-0.146-1.392,0.772-2.391,2.163-2.391
				c1.364,0,2.46,0.954,2.614,2.417C220.064,148.323,220.069,148.454,220.071,148.559z M216.323,147.832h2.649
				c-0.158-0.674-0.723-1.138-1.439-1.138C216.824,146.694,216.356,147.149,216.323,147.832z"/>
			<path style="fill:#FFFFFF;" d="M223.555,145.818l0.109,1.042c-0.098-0.018-0.177-0.026-0.256-0.026
				c-0.83,0-1.303,0.49-1.203,1.444l0.238,2.268h-1.093l-0.491-4.676h1.04l0.072,0.684
				C222.235,146.064,222.777,145.818,223.555,145.818z"/>
			<path style="fill:#FFFFFF;" d="M229.1,148.559h-3.663c0.202,0.683,0.817,1.121,1.63,1.121c0.524,0,0.918-0.167,1.214-0.508
				l0.657,0.675c-0.367,0.499-0.996,0.761-1.8,0.761c-1.565,0-2.685-1.007-2.832-2.399c-0.146-1.392,0.772-2.391,2.163-2.391
				c1.364,0,2.46,0.954,2.614,2.417C229.093,148.323,229.098,148.454,229.1,148.559z M225.352,147.832h2.649
				c-0.158-0.674-0.723-1.138-1.439-1.138C225.853,146.694,225.385,147.149,225.352,147.832z"/>
		</g>
		<g>
			<path style="fill:#FFFFFF;" d="M260.906,171.387l-8.943-4.418c0,0-2.351-2.712,0.119-3.865c0.968-0.452,2.107-0.348,3.046,0.162
				l3.313,1.798l-14.772-14.772c-0.842-0.842-0.842-2.206,0-3.048l0,0c0.842-0.842,2.206-0.842,3.048,0l10.326,10.326l-4.699-4.699
				l1.556-1.556c0.754-0.754,1.977-0.754,2.731,0l3.969,3.969l-4.191-4.191l1.81-1.81c0.754-0.754,1.977-0.754,2.731,0l3.461,3.461
				l-3.302-3.302l1.048-1.048c0.754-0.754,1.977-0.754,2.731,0l8.334,8.335c0.39,0.39,0.732,0.827,1.016,1.301l1.39,2.317
				c0.556,0.926,0.849,1.986,0.849,3.067l0,0l-8.446,8.446l-3.745,0.215C263.118,172.141,261.954,171.904,260.906,171.387z"/>
			<g>
				
					<line style="fill:none;stroke:#FFFFFF;stroke-width:2;stroke-linecap:round;stroke-linejoin:round;stroke-miterlimit:10;" x1="237.426" y1="140.996" x2="240.478" y2="144.048"/>
				
					<line style="fill:none;stroke:#FFFFFF;stroke-width:2;stroke-linecap:round;stroke-linejoin:round;stroke-miterlimit:10;" x1="234.107" y1="148.997" x2="238.415" y2="148.997"/>
				
					<line style="fill:none;stroke:#FFFFFF;stroke-width:2;stroke-linecap:round;stroke-linejoin:round;stroke-miterlimit:10;" x1="250.372" y1="144.053" x2="253.429" y2="140.996"/>
				
					<line style="fill:none;stroke:#FFFFFF;stroke-width:2;stroke-linecap:round;stroke-linejoin:round;stroke-miterlimit:10;" x1="237.426" y1="156.999" x2="240.468" y2="153.957"/>
				
					<line style="fill:none;stroke:#FFFFFF;stroke-width:2;stroke-linecap:round;stroke-linejoin:round;stroke-miterlimit:10;" x1="245.422" y1="142.001" x2="245.422" y2="137.682"/>
			</g>
		</g>
		<g>
			<polygon style="fill:#407BFF;" points="173.155,252.069 260.65,252.069 253.855,174.408 166.36,174.408 			"/>
			<polygon style="opacity:0.9;fill:#FFFFFF;" points="173.155,252.069 260.65,252.069 253.855,174.408 166.36,174.408 			"/>
			<polygon style="fill:#407BFF;" points="174.082,224.524 254.799,224.524 250.739,178.118 170.022,178.118 			"/>
			<g>
				<polygon style="fill:#407BFF;" points="229.486,232.798 250.568,232.798 250.128,227.762 229.045,227.762 				"/>
				<polygon style="fill:#407BFF;" points="204.675,232.798 225.757,232.798 225.317,227.762 204.234,227.762 				"/>
				<polygon style="fill:#407BFF;" points="179.864,232.798 200.946,232.798 200.506,227.762 179.424,227.762 				"/>
			</g>
			<g>
				<polygon style="opacity:0.5;fill:#FFFFFF;" points="229.486,232.798 250.568,232.798 250.128,227.762 229.045,227.762 				"/>
				<polygon style="opacity:0.5;fill:#FFFFFF;" points="204.675,232.798 225.757,232.798 225.317,227.762 204.234,227.762 				"/>
				<polyline style="opacity:0.5;fill:#FFFFFF;" points="179.424,227.762 179.864,232.798 200.946,232.798 200.506,227.762 				"/>
			</g>
			<g>
				<polygon style="fill:#407BFF;" points="241.544,240.036 244.792,240.036 244.54,237.154 241.292,237.154 				"/>
				<polygon style="fill:#407BFF;" points="227.588,240.036 239.652,240.036 239.4,237.154 227.336,237.154 				"/>
				<polygon style="fill:#407BFF;" points="213.389,240.036 225.454,240.036 225.202,237.154 213.137,237.154 				"/>
				<polygon style="fill:#407BFF;" points="186.925,240.036 192.958,240.036 192.706,237.154 186.673,237.154 				"/>
				<polygon style="fill:#407BFF;" points="194.723,240.036 211.184,240.036 210.932,237.154 194.471,237.154 				"/>
			</g>
			<g>
				<polygon style="fill:#407BFF;" points="202.29,244.953 190.225,244.953 189.973,242.071 202.037,242.071 				"/>
				<polygon style="fill:#407BFF;" points="216.488,244.953 204.423,244.953 204.171,242.071 216.236,242.071 				"/>
				<polygon style="fill:#407BFF;" points="242.952,244.953 236.92,244.953 236.667,242.071 242.7,242.071 				"/>
				<polygon style="fill:#407BFF;" points="235.154,244.953 218.693,244.953 218.441,242.071 234.902,242.071 				"/>
			</g>
			<g style="opacity:0.6;">
				<polygon style="fill:#FFFFFF;" points="241.544,240.036 244.792,240.036 244.54,237.154 241.292,237.154 				"/>
				<polygon style="fill:#FFFFFF;" points="227.588,240.036 239.652,240.036 239.4,237.154 227.336,237.154 				"/>
				<polygon style="fill:#FFFFFF;" points="213.389,240.036 225.454,240.036 225.202,237.154 213.137,237.154 				"/>
				<polygon style="fill:#FFFFFF;" points="186.925,240.036 192.958,240.036 192.706,237.154 186.673,237.154 				"/>
				<polygon style="fill:#FFFFFF;" points="194.723,240.036 211.184,240.036 210.932,237.154 194.471,237.154 				"/>
			</g>
			<g style="opacity:0.6;">
				<polygon style="fill:#FFFFFF;" points="202.29,244.953 190.225,244.953 189.973,242.071 202.037,242.071 				"/>
				<polygon style="fill:#FFFFFF;" points="216.488,244.953 204.423,244.953 204.171,242.071 216.236,242.071 				"/>
				<polygon style="fill:#FFFFFF;" points="242.952,244.953 236.92,244.953 236.667,242.071 242.7,242.071 				"/>
				<polygon style="fill:#FFFFFF;" points="235.154,244.953 218.693,244.953 218.441,242.071 234.902,242.071 				"/>
			</g>
			<g>
				<g>
					<g>
						<polygon style="fill:#FFFFFF;" points="254.807,224.619 226.087,199.141 214.501,224.619 						"/>
						<polygon style="fill:#FFFFFF;" points="226.482,224.619 189.151,191.501 174.09,224.619 						"/>
					</g>
					<path style="fill:#FFFFFF;" d="M205.361,191.838c0.295,3.375,3.27,6.111,6.645,6.111s5.871-2.736,5.576-6.111
						c-0.295-3.375-3.27-6.11-6.645-6.11S205.066,188.463,205.361,191.838z"/>
				</g>
			</g>
		</g>
	</g>
</g>
<g id="Plant">
	<g>
		<g>
			<g>
				<g>
					<g>
						<path style="fill:#407BFF;" d="M418.689,383.178l-0.835,0.103c-0.052-0.424-5.119-42.827,5.333-77.479
							c10.388-34.44,3.235-56.385,3.161-56.602l0.798-0.27c0.074,0.221,7.312,22.421-3.154,57.115
							C413.593,340.525,418.637,382.756,418.689,383.178z"/>
					</g>
					<g>
						<g>
							<path style="fill:#407BFF;" d="M427.838,253.923c-1.803-2.158-4.304-3.7-7.042-4.341l0.192-0.82
								c2.914,0.683,5.576,2.324,7.496,4.621L427.838,253.923z"/>
						</g>
					</g>
					<g>
						
							<rect x="429.036" y="258.071" transform="matrix(0.8706 -0.492 0.492 0.8706 -71.4788 245.1925)" style="fill:#407BFF;" width="2.765" height="0.841"/>
					</g>
					<g>
						<path style="fill:#407BFF;" d="M426.934,276.98c-2.069-4.746-6.014-8.573-10.821-10.499l0.313-0.781
							c5.011,2.007,9.122,5.996,11.28,10.943L426.934,276.98z"/>
					</g>
					<g>
						<path style="fill:#407BFF;" d="M424.677,303.472l-0.842,0.01c-0.041-3.422-1.669-6.731-4.354-8.853l0.522-0.66
							C422.885,296.247,424.633,299.8,424.677,303.472z"/>
					</g>
					<g>
						<path style="fill:#407BFF;" d="M422.8,310.246l-0.783-0.308c0.844-2.142,2.633-3.908,4.785-4.723l0.298,0.787
							C425.166,306.734,423.558,308.321,422.8,310.246z"/>
					</g>
					<g>
						<path style="fill:#407BFF;" d="M417.348,353.224l-0.648-0.537c1.023-1.235,1.798-5.935,2.214-8.461
							c0.099-0.604,0.184-1.119,0.255-1.49l0.827,0.157c-0.069,0.367-0.153,0.874-0.251,1.47
							C419.123,348.133,418.426,351.922,417.348,353.224z"/>
					</g>
					<g>
						<path style="fill:#407BFF;" d="M416.861,366.719c-1.087-3.324-4.54-5.707-8.032-5.545l-0.039-0.84
							c3.858-0.18,7.671,2.452,8.871,6.123L416.861,366.719z"/>
					</g>
					<g>
						
							<rect x="416.195" y="378.684" transform="matrix(0.6664 -0.7456 0.7456 0.6664 -142.3276 440.1349)" style="fill:#407BFF;" width="8.9" height="0.841"/>
					</g>
				</g>
				<g>
					<path style="fill:#407BFF;" d="M427.483,332.247c1.344,4.35-8.029,12.63-8.029,12.63s-12.41-1.552-13.753-5.901
						c-1.344-4.35,1.799-11.466,7.814-13.325C419.531,323.793,426.14,327.897,427.483,332.247z"/>
					<path style="fill:#407BFF;" d="M437.884,279.462c-1.189,4.619-10.066,7.9-10.066,7.9s-6.188-7.16-4.999-11.779
						c1.189-4.619,6.096-9.709,10.256-8.638C437.235,268.017,439.073,274.843,437.884,279.462z"/>
					<path style="fill:#407BFF;" d="M402.266,348.492c5.574,2.17,8.99,12.028,8.99,12.028s-9.183,4.952-14.757,2.782
						c-5.574-2.17-11.473-8.285-9.88-12.375C388.212,346.837,396.693,346.321,402.266,348.492z"/>
					<path style="fill:#407BFF;" d="M414.487,294.258c1.178,0.874,2.393,1.767,3.809,2.151c1.416,0.384,3.099,0.149,4.062-0.958
						c1.193-1.373,0.873-3.501,0.121-5.157c-1.489-3.281-6.981-8.85-11.2-7.253C405.188,285.348,411.771,292.242,414.487,294.258z"
						/>
					<path style="fill:#407BFF;" d="M426.951,302.62c-0.799,0.99-1.647,2.238-1.21,3.433c0.388,1.06,1.69,1.546,2.806,1.377
						c1.116-0.169,2.086-0.83,3.014-1.474c2.15-1.493,6.557-4.625,3.744-7.555C432.38,295.357,428.635,300.534,426.951,302.62z"/>
					<path style="fill:#407BFF;" d="M408.964,260.927c-0.92,0.102-1.852,0.717-2.009,1.629c-0.183,1.067,0.701,2,1.558,2.66
						c2.135,1.645,8.551,6.085,9.983,1.802C419.85,262.972,411.801,260.614,408.964,260.927z"/>
					<g>
						<path style="fill:#407BFF;" d="M420.792,246.837c-1.324,0.126-2.644-0.354-3.971-0.27c-1.327,0.084-2.8,1.152-2.505,2.448
							c0.273,1.198,1.762,1.599,2.989,1.677c2.093,0.132,4.203-0.014,6.258-0.432c0.477-0.097,0.996-0.238,1.27-0.641
							c0.536-0.79-0.317-1.849-1.23-2.129c-0.913-0.28-1.944-0.187-2.773-0.661L420.792,246.837z"/>
					</g>
					<g>
						<path style="fill:#407BFF;" d="M433.729,255.947c1.329,0.038,2.615-0.528,3.945-0.532c1.33-0.004,2.87,0.964,2.661,2.278
							c-0.193,1.214-1.653,1.712-2.872,1.87c-2.079,0.27-4.194,0.263-6.272-0.018c-0.482-0.065-1.01-0.172-1.309-0.556
							c-0.587-0.753,0.194-1.866,1.087-2.206c0.893-0.34,1.927-0.315,2.723-0.842L433.729,255.947z"/>
					</g>
					<g>
						<path style="fill:#407BFF;" d="M432.42,353.886c0.328-0.277,0.7-0.562,1.13-0.559c0.57,0.004,1.023,0.542,1.129,1.102
							c0.106,0.56-0.051,1.133-0.214,1.679c-0.9,3.014-11.017,24.847-13.344,20.926c-1.376-2.318,2.005-9.994,3.003-12.167
							C426.052,360.666,428.885,356.871,432.42,353.886z"/>
					</g>
				</g>
			</g>
			<g>
				<path style="fill:#407BFF;" d="M426.369,247.667c0.803-1.802,1.672-3.688,3.267-4.848c1.596-1.16,4.152-1.247,5.314,0.347
					c1.299,1.783,0,4.492-1.991,5.442c-1.99,0.95-4.323,0.664-6.507,0.358c-0.018-0.324-0.035-0.649-0.053-0.973L426.369,247.667z"
					/>
			</g>
		</g>
		<g style="opacity:0.6;">
			<g>
				<g>
					<g>
						<path style="fill:#FFFFFF;" d="M418.689,383.178l-0.835,0.103c-0.052-0.424-5.119-42.827,5.333-77.479
							c10.388-34.44,3.235-56.385,3.161-56.602l0.798-0.27c0.074,0.221,7.312,22.421-3.154,57.115
							C413.593,340.525,418.637,382.756,418.689,383.178z"/>
					</g>
					<g>
						<g>
							<path style="fill:#FFFFFF;" d="M427.838,253.923c-1.803-2.158-4.304-3.7-7.042-4.341l0.192-0.82
								c2.914,0.683,5.576,2.324,7.496,4.621L427.838,253.923z"/>
						</g>
					</g>
					<g>
						
							<rect x="429.036" y="258.071" transform="matrix(0.8706 -0.492 0.492 0.8706 -71.4788 245.1925)" style="fill:#FFFFFF;" width="2.765" height="0.841"/>
					</g>
					<g>
						<path style="fill:#FFFFFF;" d="M426.934,276.98c-2.069-4.746-6.014-8.573-10.821-10.499l0.313-0.781
							c5.011,2.007,9.122,5.996,11.28,10.943L426.934,276.98z"/>
					</g>
					<g>
						<path style="fill:#FFFFFF;" d="M424.677,303.472l-0.842,0.01c-0.041-3.422-1.669-6.731-4.354-8.853l0.522-0.66
							C422.885,296.247,424.633,299.8,424.677,303.472z"/>
					</g>
					<g>
						<path style="fill:#FFFFFF;" d="M422.8,310.246l-0.783-0.308c0.844-2.142,2.633-3.908,4.785-4.723l0.298,0.787
							C425.166,306.734,423.558,308.321,422.8,310.246z"/>
					</g>
					<g>
						<path style="fill:#FFFFFF;" d="M417.348,353.224l-0.648-0.537c1.023-1.235,1.798-5.935,2.214-8.461
							c0.099-0.604,0.184-1.119,0.255-1.49l0.827,0.157c-0.069,0.367-0.153,0.874-0.251,1.47
							C419.123,348.133,418.426,351.922,417.348,353.224z"/>
					</g>
					<g>
						<path style="fill:#FFFFFF;" d="M416.861,366.719c-1.087-3.324-4.54-5.707-8.032-5.545l-0.039-0.84
							c3.858-0.18,7.671,2.452,8.871,6.123L416.861,366.719z"/>
					</g>
					<g>
						
							<rect x="416.195" y="378.684" transform="matrix(0.6664 -0.7456 0.7456 0.6664 -142.3276 440.1349)" style="fill:#FFFFFF;" width="8.9" height="0.841"/>
					</g>
				</g>
				<g>
					<path style="fill:#FFFFFF;" d="M427.483,332.247c1.344,4.35-8.029,12.63-8.029,12.63s-12.41-1.552-13.753-5.901
						c-1.344-4.35,1.799-11.466,7.814-13.325C419.531,323.793,426.14,327.897,427.483,332.247z"/>
					<path style="fill:#FFFFFF;" d="M437.884,279.462c-1.189,4.619-10.066,7.9-10.066,7.9s-6.188-7.16-4.999-11.779
						c1.189-4.619,6.096-9.709,10.256-8.638C437.235,268.017,439.073,274.843,437.884,279.462z"/>
					<path style="fill:#FFFFFF;" d="M402.266,348.492c5.574,2.17,8.99,12.028,8.99,12.028s-9.183,4.952-14.757,2.782
						c-5.574-2.17-11.473-8.285-9.88-12.375C388.212,346.837,396.693,346.321,402.266,348.492z"/>
					<path style="fill:#FFFFFF;" d="M414.487,294.258c1.178,0.874,2.393,1.767,3.809,2.151c1.416,0.384,3.099,0.149,4.062-0.958
						c1.193-1.373,0.873-3.501,0.121-5.157c-1.489-3.281-6.981-8.85-11.2-7.253C405.188,285.348,411.771,292.242,414.487,294.258z"
						/>
					<path style="fill:#FFFFFF;" d="M426.951,302.62c-0.799,0.99-1.647,2.238-1.21,3.433c0.388,1.06,1.69,1.546,2.806,1.377
						c1.116-0.169,2.086-0.83,3.014-1.474c2.15-1.493,6.557-4.625,3.744-7.555C432.38,295.357,428.635,300.534,426.951,302.62z"/>
					<path style="fill:#FFFFFF;" d="M408.964,260.927c-0.92,0.102-1.852,0.717-2.009,1.629c-0.183,1.067,0.701,2,1.558,2.66
						c2.135,1.645,8.551,6.085,9.983,1.802C419.85,262.972,411.801,260.614,408.964,260.927z"/>
					<g>
						<path style="fill:#FFFFFF;" d="M420.792,246.837c-1.324,0.126-2.644-0.354-3.971-0.27c-1.327,0.084-2.8,1.152-2.505,2.448
							c0.273,1.198,1.762,1.599,2.989,1.677c2.093,0.132,4.203-0.014,6.258-0.432c0.477-0.097,0.996-0.238,1.27-0.641
							c0.536-0.79-0.317-1.849-1.23-2.129c-0.913-0.28-1.944-0.187-2.773-0.661L420.792,246.837z"/>
					</g>
					<g>
						<path style="fill:#FFFFFF;" d="M433.729,255.947c1.329,0.038,2.615-0.528,3.945-0.532c1.33-0.004,2.87,0.964,2.661,2.278
							c-0.193,1.214-1.653,1.712-2.872,1.87c-2.079,0.27-4.194,0.263-6.272-0.018c-0.482-0.065-1.01-0.172-1.309-0.556
							c-0.587-0.753,0.194-1.866,1.087-2.206c0.893-0.34,1.927-0.315,2.723-0.842L433.729,255.947z"/>
					</g>
					<g>
						<path style="fill:#FFFFFF;" d="M432.42,353.886c0.328-0.277,0.7-0.562,1.13-0.559c0.57,0.004,1.023,0.542,1.129,1.102
							c0.106,0.56-0.051,1.133-0.214,1.679c-0.9,3.014-11.017,24.847-13.344,20.926c-1.376-2.318,2.005-9.994,3.003-12.167
							C426.052,360.666,428.885,356.871,432.42,353.886z"/>
					</g>
				</g>
			</g>
			<g>
				<path style="fill:#FFFFFF;" d="M426.369,247.667c0.803-1.802,1.672-3.688,3.267-4.848c1.596-1.16,4.152-1.247,5.314,0.347
					c1.299,1.783,0,4.492-1.991,5.442c-1.99,0.95-4.323,0.664-6.507,0.358c-0.018-0.324-0.035-0.649-0.053-0.973L426.369,247.667z"
					/>
			</g>
		</g>
		<g>
			<g>
				<path style="fill:#263238;" d="M433.224,411.814L433.224,411.814c-10.521,2.5-21.782,2.5-32.303,0l0,0l-5.016-37.077h42.335
					L433.224,411.814z"/>
			</g>
			<g style="opacity:0.8;">
				<path style="fill:#FFFFFF;" d="M433.224,411.814L433.224,411.814c-10.521,2.5-21.782,2.5-32.303,0l0,0l-5.016-37.077h42.335
					L433.224,411.814z"/>
			</g>
		</g>
	</g>
</g>
<g id="Character">
	<g>
		<g>
			<g>
				<path style="fill:#407BFF;" d="M316.883,199.932c-2.195,6.91,0.212,23.807-6.67,28.197c-6.112,3.899-9.291,10.042-9.078,17.289
					c4.485-6.193,11.933-9.722,19.473-10.992c7.54-1.269,15.26-0.52,22.854,0.375c3.58,0.422,20.295,5.731,19.386,9.219
					c5.379-8.009-0.747-44.043-3.175-53.381c-0.73-2.806,0.686-6.772-2.086-7.619c-6.409-1.957-20.283-5.893-34.33,3.143
					C317.617,189.791,318.288,195.508,316.883,199.932z"/>
			</g>
			<g style="opacity:0.5;">
				<path d="M316.883,199.932c-2.195,6.91,0.212,23.807-6.67,28.197c-6.112,3.899-9.291,10.042-9.078,17.289
					c4.485-6.193,11.933-9.722,19.473-10.992c7.54-1.269,15.26-0.52,22.854,0.375c3.58,0.422,20.295,5.731,19.386,9.219
					c5.379-8.009-0.747-44.043-3.175-53.381c-0.73-2.806,0.686-6.772-2.086-7.619c-6.409-1.957-20.283-5.893-34.33,3.143
					C317.617,189.791,318.288,195.508,316.883,199.932z"/>
			</g>
		</g>
		<g>
			<g>
				<g>
					<path style="fill:#DD8C6A;" d="M283.07,188.692l-3.704-9.403l-4.536,7.053c0,0,2.389,4.782,5.301,4.958L283.07,188.692z"/>
					<path style="fill:#DD8C6A;" d="M273.027,177.196l-1.414,1.599c-0.854,0.966-0.889,2.407-0.083,3.414l3.301,4.124l4.536-7.044
						l-2.583-2.313C275.687,175.995,274.001,176.093,273.027,177.196z"/>
					<path style="fill:#DD8C6A;" d="M276.043,185.239L276.043,185.239l-1.17-0.696c-0.591-0.352-1.132-0.784-1.606-1.283
						l-0.172-0.82c0.292-0.424,0.83-0.602,1.317-0.437l0.986,0.335l4.953,0.69l-0.007,2.104l-1.594,2.163l-0.506-0.012
						C277.098,187.257,276.154,186.379,276.043,185.239z"/>
				</g>
				<path style="fill:#407BFF;" d="M314.882,191.479c0,0-9.443,7.141-16.665,13.765c0,0-13.441-13.909-15.362-17.398l-3.777,3.284
					c1.249,4.201,3.69,10.523,5.913,14.301c1.198,2.039,2.666,3.906,4.364,5.551c1.025,0.979,2.199,1.786,3.48,2.392
					c1.619,0.769,3.435,1.02,5.202,0.719c0.459-0.081,0.91-0.199,1.348-0.355l0.85-0.311l1.534-0.585
					c1.035-0.384,2.033-0.851,3.04-1.282c2.018-0.918,3.983-1.947,5.888-3.08c1.921-1.15,3.774-2.41,5.549-3.774
					c0.925-0.707,1.758-1.434,2.61-2.224c0.426-0.386,0.852-0.8,1.268-1.223l0.62-0.662c0.222-0.248,0.389-0.432,0.704-0.81
					L314.882,191.479z"/>
				<g>
					<path style="fill:#407BFF;" d="M324.113,186.075c-3.411-0.842-27.528,20.605-27.528,20.605l3.65,6.748
						c0,0,21.886-9.126,28.604-18.967C328.282,189.744,329.091,187.309,324.113,186.075z"/>
				</g>
				<path style="opacity:0.2;enable-background:new    ;" d="M323.572,193.49l-2.881,8.704c-11.87,8.229-15.883,9.366-15.883,9.366
					L323.572,193.49z"/>
				<polygon style="fill:#DD8C6A;" points="326.61,406.592 318.388,406.887 316.985,387.782 325.208,387.487 				"/>
				<g>
					<path style="fill:#407BFF;" d="M315.047,407.941c0.081-0.011,0.147-0.071,0.164-0.151c0.01-0.082-0.029-0.162-0.099-0.206
						c-0.362-0.202-3.599-1.992-4.627-1.465c-0.196,0.098-0.327,0.291-0.345,0.51c-0.059,0.353,0.059,0.712,0.315,0.961
						c0.579,0.41,1.279,0.612,1.987,0.571C313.315,408.168,314.187,408.094,315.047,407.941z M311.032,406.408
						c1.196,0.22,2.345,0.643,3.398,1.25c-1.838,0.241-3.194,0.121-3.676-0.342c-0.166-0.167-0.242-0.404-0.205-0.636
						c0.007-0.09,0.061-0.168,0.143-0.206c0.115-0.052,0.242-0.072,0.367-0.058L311.032,406.408z"/>
					<path style="fill:#407BFF;" d="M315.166,407.902c0.048-0.049,0.07-0.117,0.059-0.185c-0.01-0.09-0.125-2.324-1.131-3.213
						c-0.296-0.263-0.689-0.387-1.082-0.343c-0.545,0.04-0.681,0.317-0.748,0.528c-0.187,0.928,1.696,2.773,2.669,3.246l0.07,0.022
						C315.064,407.965,315.124,407.944,315.166,407.902z M313.161,404.547c0.251-0.016,0.499,0.062,0.695,0.22
						c0.587,0.736,0.925,1.639,0.964,2.58c-0.987-0.613-2.263-2.052-2.143-2.615c0.005-0.047,0.029-0.184,0.388-0.216l0.114,0.036
						L313.161,404.547z"/>
				</g>
				<path style="fill:#263238;" d="M318.999,403.616l7.382,0.77c0.331,0.024,0.59,0.295,0.598,0.627l1.122,10.388
					c-0.005,0.739-0.607,1.334-1.346,1.329c-0.051,0-0.102-0.004-0.153-0.01c-3.202-0.367-4.734-0.703-8.796-1.096
					c-2.489-0.24-10.221,0.183-13.54-0.803c-3.318-0.986-2.512-4.325-1.042-4.212c4.73,0.388,10.383-2.354,13.349-5.79
					C316.999,404.537,318.491,403.553,318.999,403.616z"/>
				<polygon style="opacity:0.2;" points="316.985,387.782 317.709,397.63 325.931,397.344 325.217,387.496 				"/>
				<g>
					<path style="fill:#FFFFFF;" d="M318.288,195.508c-5.168,7.641,0.122,14.7,3.401,38.72l30.777,2.009
						c0.302-12.816,1.001-23.148,8.033-47.954c0.649-2.258-0.655-4.614-2.913-5.264c-0.293-0.084-0.594-0.137-0.898-0.157
						c-2.546-0.156-5.748-0.268-9.014-0.141c-5.154,0.095-10.295,0.547-15.386,1.351c-4.339,0.76-5.413,1.264-8.174,2.002
						C322.501,186.515,320.323,190.703,318.288,195.508z"/>
				</g>
				<path style="fill:#407BFF;" d="M320.451,235.759c0,0-21.379,41.069-17.592,98.895c-0.626,13.783,13.612,57.068,13.612,57.068
					l11.119,0.038c0,0,0.647-62.789,2.41-79.086c2.858-26.692,13.885-75.878,13.885-75.878L320.451,235.759z"/>
				<polygon style="fill:#407BFF;" points="329.608,394.78 313.943,394.727 312.811,389.947 330.355,389.426 				"/>
				<polygon style="opacity:0.4;fill:#FFFFFF;" points="329.608,394.78 313.943,394.727 312.811,389.947 330.355,389.426 				"/>
				<path style="opacity:0.2;enable-background:new    ;" d="M328.844,332.866c-3.626-1.556-13.503-9.399-10.667-28.626
					l11.02-46.352L328.844,332.866z"/>
				<g>
					<path style="fill:#407BFF;" d="M351.6,320.718c-9.244-27.731,12.849-63.785,1.233-83.398l-19.215-0.316
						c0,0-24.626,85.843,3.322,97.525L351.6,320.718z"/>
				</g>
				<g>
					<g>
						<path style="fill:#DD8C6A;" d="M395.272,221.542c1.189,2.017,7.902,1.124,7.902,1.124l1.922-8.13l-8.346,2.754
							L395.272,221.542z"/>
						<path style="fill:#DD8C6A;" d="M405.092,214.469l-1.918,8.196l4.963,1.303c0.54,0.08,1.056-0.252,1.207-0.776l2.253-5.999
							c0.084-0.29-0.077-0.595-0.364-0.69L405.092,214.469z"/>
					</g>
					<path style="fill:#407BFF;" d="M396.746,217.285l-1.469,4.257c0,0-10.771,0.799-19.017-0.329
						c-0.02-0.001-0.04-0.003-0.069-0.014c-2.887-0.291-10.209-1.611-13.308-7.176c-4.413-7.931-9.697-17.963-9.781-21.264
						c-0.174-6.985,2.892-11.45,5.963-9.294c6.288,4.391,11.674,20.149,14.731,26.532l7.319,2.322L396.746,217.285z"/>
				</g>
				<g>
					<polygon style="fill:#DD8C6A;" points="395.313,376.009 389.025,381.342 374.499,368.655 380.214,361.857 					"/>
					<path style="fill:#263238;" d="M386.454,378.399l4.147-6.155c0.177-0.281,0.538-0.382,0.835-0.234l9.699,3.888
						c0.65,0.351,0.892,1.163,0.541,1.813c-0.024,0.045-0.051,0.089-0.081,0.13c-1.828,2.654-2.844,3.849-5.099,7.251
						c-1.381,2.085-4.639,9.109-7.069,11.576c-2.429,2.466-4.998,0.186-4.208-1.058c2.564-3.993,2.799-10.272,1.158-14.504
						C386.328,380.597,386.16,378.818,386.454,378.399z"/>
					<polygon style="opacity:0.2;" points="376.09,357.797 370.019,364.892 379.477,373.003 385.563,366.871 					"/>
					<g>
						<path style="fill:#407BFF;" d="M328.049,325.29c1.352,16.092,46.242,47.085,46.242,47.085l8.463-8.677
							c0,0-31.723-36.926-31.154-42.979L328.049,325.29z"/>
					</g>
					<polygon style="fill:#407BFF;" points="384.346,362.031 373.448,373.432 368.834,371.075 381.809,357.516 					"/>
					<polygon style="opacity:0.4;fill:#FFFFFF;" points="384.346,362.031 373.448,373.432 368.834,371.075 381.809,357.516 					"/>
					<g>
						<path style="fill:#407BFF;" d="M386.72,380.807c0.033-0.068,0.025-0.149-0.021-0.21c-0.047-0.064-0.13-0.09-0.205-0.066
							c-0.29,0.086-3.191,0.921-3.488,1.929c-0.072,0.23-0.014,0.48,0.151,0.655c0.232,0.309,0.608,0.477,0.993,0.442
							c0.032-0.018,0.089-0.049,0.089-0.049C385.193,383.328,386.185,381.746,386.72,380.807z M386.11,381.039
							c-0.719,1.294-1.484,2.044-2.006,2.111c-0.255,0.017-0.501-0.097-0.653-0.303c-0.08-0.074-0.113-0.185-0.086-0.29
							c0.151-0.547,1.628-1.174,2.77-1.532L386.11,381.039z"/>
						<path style="fill:#407BFF;" d="M386.605,380.924c0.064-0.026,0.112-0.08,0.13-0.146c0.003-0.07-0.033-0.135-0.094-0.17
							c-0.077-0.063-1.868-1.624-3.06-1.471c-0.303,0.019-0.582,0.173-0.759,0.42c-0.204,0.246-0.214,0.6-0.022,0.856
							c0.535,0.663,2.473,0.773,3.476,0.566C386.387,380.967,386.497,380.948,386.605,380.924z M383.568,379.493
							c0.021,0.004,0.042,0.003,0.062-0.003c0.727-0.096,1.836,0.65,2.463,1.137c-0.992,0.169-2.619-0.007-2.968-0.467
							c-0.053-0.076-0.103-0.186,0.038-0.39C383.252,379.625,383.399,379.524,383.568,379.493L383.568,379.493z"/>
					</g>
				</g>
				<g>
					<path style="fill:#263238;" d="M352.679,234.682l0.663,3.047c0.101,0.24-0.186,0.461-0.574,0.432l-31.765-2.032
						c-0.304-0.001-0.544-0.186-0.552-0.371l-0.11-3.018c0.001-0.203,0.269-0.368,0.601-0.339l31.212,1.993
						C352.367,234.39,352.567,234.5,352.679,234.682z"/>
				</g>
				<g>
					<path style="fill:#407BFF;" d="M346.38,238.04l0.923,0.059c0.175,0.001,0.323-0.073,0.314-0.184l-0.171-3.922
						c0-0.111-0.156-0.213-0.341-0.223l-0.923-0.068c-0.175,0-0.323,0.073-0.314,0.193l0.171,3.913
						C346.048,237.919,346.204,238.03,346.38,238.04z"/>
					<path style="fill:#407BFF;" d="M323.444,236.6l0.922,0.059c0.175,0.001,0.323-0.073,0.314-0.184l-0.171-3.913
						c0.001-0.12-0.156-0.222-0.331-0.232l-0.923-0.059c-0.175-0.001-0.323,0.073-0.314,0.184l0.172,3.913
						C323.112,236.488,323.26,236.59,323.444,236.6z"/>
					<path style="fill:#407BFF;" d="M333.949,237.236l0.922,0.059c0.175,0.001,0.323-0.073,0.314-0.184l-0.171-3.913
						c0-0.12-0.156-0.222-0.331-0.232l-0.923-0.059c-0.175-0.001-0.323,0.073-0.314,0.184l0.171,3.913
						C333.618,237.125,333.765,237.227,333.949,237.236z"/>
				</g>
				<path style="fill:#DD8C6A;" d="M347.288,165.872c-1.29,4.951-2.815,13.951,0.414,16.896c0,0-1.678,5.06-10.871,5.86
					c-10.153,0.889-4.515-4.509-4.515-4.509c5.607-1.827,5.722-5.794,5.005-9.496L347.288,165.872z"/>
				<path style="fill:#DD8C6A;" d="M347.674,182.723c-5.151,0.083-9.47,0.294-14.558,1.104l-5.213,1.2
					c-1.383,2.394-1.499,8.011,4.211,9.335c0,0,11.688,2.366,17.821-7.907C350.936,184.778,349.625,182.658,347.674,182.723
					L347.674,182.723z"/>
				<path style="opacity:0.2;enable-background:new    ;" d="M343.225,169.448l-5.895,5.175c0.18,0.869,0.279,1.753,0.296,2.64
					c2.133-0.482,5.647-2.583,6.014-4.778C343.71,171.455,343.569,170.421,343.225,169.448z"/>
				<path style="fill:#263238;" d="M341.668,143.967c-0.817,1.747-1.997,3.151-3.694,3.93c-0.987,0.453-3.985,1.76-4.929,2.796
					c-1.574,1.72-2.518-5.831,1.531-7.829C338.625,140.865,343.695,139.637,341.668,143.967z"/>
				<g>
					<path style="fill:#263238;" d="M337.677,175.21c-0.998,0.726-2.345,0.944-3.521,0.572c-1.176-0.372-2.153-1.326-2.552-2.494
						c-1.63,0.161-3.062-0.228-4.108-1.49c-1.046-1.261-1.416-3.052-0.955-4.624c0.526-1.795,1.988-3.14,3.431-4.33
						c1.384,4.468,3.931,8.58,7.359,11.763L337.677,175.21z"/>
				</g>
				<path style="fill:#DD8C6A;" d="M353.832,159.915c-2.951,7.639-4.032,10.939-9.273,13.69c-7.829,4.135-16.605-1.154-15.959-9.512
					c0.542-7.527,5.267-18.75,13.906-19.441c6.143-0.528,11.552,4.024,12.08,10.167
					C354.735,156.554,354.477,158.299,353.832,159.915z"/>
				<path style="fill:#DE5753;" d="M335.32,157.536c-0.959,1.319-2.096,2.499-3.379,3.506c0.54,0.648,1.337,1.027,2.181,1.037
					L335.32,157.536z"/>
				<path style="fill:#DD8C6A;" d="M354.29,166.516c-0.981,1.244-2.413,2.051-3.984,2.247c-2.086,0.233-2.762-1.707-1.935-3.504
					c0.771-1.612,2.781-3.682,4.744-3.084c1.41,0.458,2.183,1.972,1.725,3.383C354.725,165.912,354.538,166.239,354.29,166.516z"/>
				<path style="fill:#263238;" d="M344.302,156.149c-0.167,0.009-0.32-0.093-0.377-0.25c-0.651-1.73-2.892-2.293-2.912-2.296
					c-0.208-0.053-0.335-0.265-0.282-0.473c0.053-0.208,0.265-0.335,0.473-0.282c0.113,0.023,2.664,0.712,3.453,2.795
					c0.078,0.199-0.02,0.424-0.219,0.502c-0.001,0-0.001,0.001-0.002,0.001L344.302,156.149z"/>
				<path style="fill:#263238;" d="M332.545,152.013c-0.138,0-0.265-0.074-0.332-0.195c-0.11-0.184-0.049-0.422,0.134-0.531
					c0.002-0.001,0.004-0.002,0.006-0.003c1.081-0.648,2.408-0.733,3.562-0.228c0.193,0.097,0.271,0.333,0.174,0.526
					c-0.098,0.193-0.333,0.271-0.527,0.174l0,0l0,0c-0.917-0.392-1.967-0.313-2.815,0.212
					C332.684,151.996,332.615,152.011,332.545,152.013z"/>
				<g>
					<path style="fill:#263238;" d="M332.721,155.158c-0.437-0.111-0.928,0.358-1.091,1.032c-0.162,0.674,0.065,1.317,0.503,1.418
						c0.437,0.101,0.928-0.358,1.091-1.032C333.394,155.921,333.158,155.268,332.721,155.158z"/>
					<path style="fill:#263238;" d="M331.4,154.4l1.508,0.862C331.928,155.866,331.4,154.4,331.4,154.4z"/>
				</g>
				<g>
					<path style="fill:#263238;" d="M340.332,157.219c-0.437-0.111-0.928,0.358-1.091,1.032c-0.162,0.674,0.066,1.317,0.503,1.418
						c0.437,0.101,0.928-0.358,1.091-1.032C341.005,157.982,340.768,157.329,340.332,157.219z"/>
					<path style="fill:#263238;" d="M339.011,156.461l1.508,0.862C339.538,157.927,339.011,156.461,339.011,156.461z"/>
				</g>
			</g>
			<g>
				<path style="fill:#263238;" d="M333.1,165.032c0.197,1.288,0.103,3.569,0.103,3.569c0.205,0.046,0.41,0.092,0.617,0.127
					c2.797,0.551,4.277-0.118,5.069-1.026c0.431-0.498,0.652-1.077,0.768-1.562c0.139-0.559,0.111-0.99,0.111-0.99
					c-1.658,0.594-4.305,0.281-5.712,0.055C333.467,165.116,333.1,165.032,333.1,165.032z"/>
				<path style="fill:#FFFFFF;" d="M334.057,165.205l0.058,1.052c2.636,0.513,4.561,0.52,5.543-0.117
					c0.139-0.559,0.111-0.99,0.111-0.99C338.111,165.744,335.464,165.431,334.057,165.205z"/>
				<path style="fill:#DE5753;" d="M333.821,168.727c2.797,0.551,4.277-0.118,5.069-1.026c-0.961-0.151-2.135-0.226-3.227,0.004
					C334.827,167.878,334.243,168.283,333.821,168.727z"/>
			</g>
			<path style="fill:#263238;" d="M342.375,141.443c1.78-1.639,4.637-1.582,6.807-0.513c2.17,1.07,3.811,2.952,5.382,4.791
				c2.718,3.182,5.475,6.491,6.773,10.469c1.299,3.978,0.809,8.83-2.281,11.652c-0.907,0.828-1.993,1.448-2.864,2.314
				c-0.871,0.866-1.527,2.102-1.244,3.297c0.284,1.195,1.855,2.033,2.823,1.277c-1.362,1.644-4.023,2.008-5.777,0.792
				c-1.293,1.288-3.384,1.697-5.067,0.991c-1.683-0.706-5.411-3.089-4.614-6.705c1.979-0.328,7.437-4.787,7.797-7.421
				s-0.067-7.895-1.21-10.296c-0.304,0.965-1.612,0.852-2.488,0.345c-0.876-0.507-1.366-1.469-1.814-2.377
				c-0.448-0.907-1.094-1.668-1.843-2.349c-2.475-2.251-4.067,0.451-4.782,0.186C338.515,145.35,340.46,143.206,342.375,141.443z"/>
		</g>
		<path style="opacity:0.2;enable-background:new    ;" d="M343.695,240.284c0,0,1.027,4.21,1.201,9.123
			c0.225,6.375-0.327,7.316-0.281,8.171C346.542,251.616,346.04,245.89,343.695,240.284z"/>
		<path style="opacity:0.2;enable-background:new    ;" d="M325.945,239.214c-2.186,5.581-4.371,11.162-6.557,16.743
			C320.011,249.821,322.326,244.309,325.945,239.214z"/>
		<g>
			<path style="fill:#407BFF;" d="M352.396,193.148c0,0,7.808,15.816,9.599,33.105c1.633,15.757,0.853,17.768,0.853,17.768
				s3.165-3.022,2.423-19.409c-0.375-8.288-1.64-19.473-5.598-33.971C359.673,190.639,357.708,191.104,352.396,193.148z"/>
			<path style="fill:#407BFF;" d="M352.563,193.657l-4.889-10.934l-1.29-2.101c0,0,6.915,0.959,11.203,2.399
				c0,0-1.289,2.103-2.915,6.965C354.282,191.151,353.883,193.739,352.563,193.657z"/>
			<path style="fill:#407BFF;" d="M319.059,193.738c0,0,8.97-9.734,17.878-12.831c0,0-5.969,0.441-13.68,5.257
				C323.257,186.163,319.634,190.083,319.059,193.738z"/>
		</g>
	</g>
</g>
</svg>
